<mxfile host="65bd71144e">
    <diagram id="3P9DwB53Ec_SRerw1W_u" name="Page-1">
        <mxGraphModel dx="1386" dy="779" grid="1" gridSize="10" guides="1" tooltips="1" connect="1" arrows="1" fold="1" page="1" pageScale="1" pageWidth="1169" pageHeight="827" math="0" shadow="0">
            <root>
                <mxCell id="0"/>
                <mxCell id="1" parent="0"/>
                <mxCell id="3" value="Toolbar" style="rounded=0;whiteSpace=wrap;html=1;" parent="1" vertex="1">
                    <mxGeometry x="40" y="100" width="240" height="610" as="geometry"/>
                </mxCell>
                <mxCell id="4" value="Navigation" style="rounded=0;whiteSpace=wrap;html=1;" parent="1" vertex="1">
                    <mxGeometry x="280" y="100" width="840" height="60" as="geometry"/>
                </mxCell>
                <mxCell id="5" value="" style="rounded=0;whiteSpace=wrap;html=1;" parent="1" vertex="1">
                    <mxGeometry x="280" y="160" width="840" height="550" as="geometry"/>
                </mxCell>
                <mxCell id="67" value="Issues" style="text;html=1;align=center;verticalAlign=middle;resizable=0;points=[];autosize=1;strokeColor=none;fillColor=none;fontSize=18;" parent="1" vertex="1">
                    <mxGeometry x="300" y="185" width="80" height="40" as="geometry"/>
                </mxCell>
                <mxCell id="68" value="Create&lt;br style=&quot;font-size: 12px;&quot;&gt;Issue" style="rounded=1;whiteSpace=wrap;html=1;fontSize=12;" parent="1" vertex="1">
                    <mxGeometry x="1030" y="180" width="70" height="50" as="geometry"/>
                </mxCell>
                <mxCell id="69" value="" style="rounded=1;whiteSpace=wrap;html=1;fontSize=12;" parent="1" vertex="1">
                    <mxGeometry x="300" y="250" width="800" height="70" as="geometry"/>
                </mxCell>
                <mxCell id="70" value="Filters" style="rounded=1;whiteSpace=wrap;html=1;fontSize=12;" parent="1" vertex="1">
                    <mxGeometry x="320" y="270" width="70" height="30" as="geometry"/>
                </mxCell>
                <mxCell id="71" value="Search" style="rounded=1;whiteSpace=wrap;html=1;fontSize=12;" parent="1" vertex="1">
                    <mxGeometry x="1010" y="270" width="70" height="30" as="geometry"/>
                </mxCell>
                <mxCell id="72" value="" style="rounded=1;whiteSpace=wrap;html=1;fontSize=12;arcSize=2;" parent="1" vertex="1">
                    <mxGeometry x="300" y="340" width="800" height="350" as="geometry"/>
                </mxCell>
                <mxCell id="73" value="" style="ellipse;whiteSpace=wrap;html=1;fontSize=12;fillColor=#FFFFFF;fillStyle=hatch;" parent="1" vertex="1">
                    <mxGeometry x="320" y="389" width="20" height="20" as="geometry"/>
                </mxCell>
                <mxCell id="74" value="Created By" style="text;html=1;align=left;verticalAlign=middle;resizable=0;points=[];autosize=1;strokeColor=none;fillColor=none;fontSize=12;" parent="1" vertex="1">
                    <mxGeometry x="320" y="350" width="80" height="30" as="geometry"/>
                </mxCell>
                <mxCell id="75" value="Issue ID" style="text;html=1;align=center;verticalAlign=middle;resizable=0;points=[];autosize=1;strokeColor=none;fillColor=none;fontSize=12;" parent="1" vertex="1">
                    <mxGeometry x="450" y="350" width="70" height="30" as="geometry"/>
                </mxCell>
                <mxCell id="76" value="USER_NAME" style="text;html=1;align=left;verticalAlign=middle;resizable=0;points=[];autosize=1;strokeColor=none;fillColor=none;fontSize=6;" parent="1" vertex="1">
                    <mxGeometry x="350" y="380" width="60" height="20" as="geometry"/>
                </mxCell>
                <mxCell id="77" value="USER_EMAIL" style="text;html=1;align=left;verticalAlign=middle;resizable=0;points=[];autosize=1;strokeColor=none;fillColor=none;fontSize=6;" parent="1" vertex="1">
                    <mxGeometry x="350" y="400" width="60" height="20" as="geometry"/>
                </mxCell>
                <mxCell id="78" value="ISSUE_ID" style="text;html=1;align=center;verticalAlign=middle;resizable=0;points=[];autosize=1;strokeColor=none;fillColor=none;fontSize=6;" parent="1" vertex="1">
                    <mxGeometry x="460" y="389" width="50" height="20" as="geometry"/>
                </mxCell>
                <mxCell id="79" value="Title" style="text;html=1;align=left;verticalAlign=middle;resizable=0;points=[];autosize=1;strokeColor=none;fillColor=none;fontSize=12;" parent="1" vertex="1">
                    <mxGeometry x="530" y="350" width="50" height="30" as="geometry"/>
                </mxCell>
                <mxCell id="80" value="ISSUE_TITLE" style="text;html=1;align=left;verticalAlign=middle;resizable=0;points=[];autosize=1;strokeColor=none;fillColor=none;fontSize=6;" parent="1" vertex="1">
                    <mxGeometry x="530" y="389" width="60" height="20" as="geometry"/>
                </mxCell>
                <mxCell id="81" value="Issue ID" style="text;html=1;align=center;verticalAlign=middle;resizable=0;points=[];autosize=1;strokeColor=none;fillColor=none;fontSize=12;" parent="1" vertex="1">
                    <mxGeometry x="640" y="350" width="70" height="30" as="geometry"/>
                </mxCell>
                <mxCell id="82" value="ISSUE_ID" style="text;html=1;align=center;verticalAlign=middle;resizable=0;points=[];autosize=1;strokeColor=none;fillColor=none;fontSize=6;" parent="1" vertex="1">
                    <mxGeometry x="650" y="389" width="50" height="20" as="geometry"/>
                </mxCell>
                <mxCell id="83" value="Asignee" style="text;html=1;align=left;verticalAlign=middle;resizable=0;points=[];autosize=1;strokeColor=none;fillColor=none;fontSize=12;" parent="1" vertex="1">
                    <mxGeometry x="740" y="350" width="70" height="30" as="geometry"/>
                </mxCell>
                <mxCell id="84" value="ASSIGNER_NAME" style="text;html=1;align=left;verticalAlign=middle;resizable=0;points=[];autosize=1;strokeColor=none;fillColor=none;fontSize=6;" parent="1" vertex="1">
                    <mxGeometry x="740" y="389" width="80" height="20" as="geometry"/>
                </mxCell>
                <mxCell id="85" value="Priority" style="text;html=1;align=center;verticalAlign=middle;resizable=0;points=[];autosize=1;strokeColor=none;fillColor=none;fontSize=12;" parent="1" vertex="1">
                    <mxGeometry x="855" y="350" width="60" height="30" as="geometry"/>
                </mxCell>
                <mxCell id="86" value="ISSUE_PRIORITY" style="text;html=1;align=center;verticalAlign=middle;resizable=0;points=[];autosize=1;strokeColor=none;fillColor=none;fontSize=6;" parent="1" vertex="1">
                    <mxGeometry x="850" y="389" width="70" height="20" as="geometry"/>
                </mxCell>
                <mxCell id="87" value="Status" style="text;html=1;align=center;verticalAlign=middle;resizable=0;points=[];autosize=1;strokeColor=none;fillColor=none;fontSize=12;" parent="1" vertex="1">
                    <mxGeometry x="925" y="350" width="60" height="30" as="geometry"/>
                </mxCell>
                <mxCell id="88" value="ISSUE_STATUS" style="text;html=1;align=center;verticalAlign=middle;resizable=0;points=[];autosize=1;strokeColor=none;fillColor=none;fontSize=6;" parent="1" vertex="1">
                    <mxGeometry x="920" y="389" width="70" height="20" as="geometry"/>
                </mxCell>
                <mxCell id="89" value="Creation Date" style="text;html=1;align=left;verticalAlign=middle;resizable=0;points=[];autosize=1;strokeColor=none;fillColor=none;fontSize=12;" parent="1" vertex="1">
                    <mxGeometry x="1000" y="350" width="100" height="30" as="geometry"/>
                </mxCell>
                <mxCell id="90" value="CREATION_DATE" style="text;html=1;align=left;verticalAlign=middle;resizable=0;points=[];autosize=1;strokeColor=none;fillColor=none;fontSize=6;" parent="1" vertex="1">
                    <mxGeometry x="1000" y="389" width="70" height="20" as="geometry"/>
                </mxCell>
                <mxCell id="91" value="" style="ellipse;whiteSpace=wrap;html=1;fontSize=12;fillColor=#FFFFFF;fillStyle=hatch;" parent="1" vertex="1">
                    <mxGeometry x="320" y="439" width="20" height="20" as="geometry"/>
                </mxCell>
                <mxCell id="92" value="USER_NAME" style="text;html=1;align=left;verticalAlign=middle;resizable=0;points=[];autosize=1;strokeColor=none;fillColor=none;fontSize=6;" parent="1" vertex="1">
                    <mxGeometry x="350" y="430" width="60" height="20" as="geometry"/>
                </mxCell>
                <mxCell id="93" value="USER_EMAIL" style="text;html=1;align=left;verticalAlign=middle;resizable=0;points=[];autosize=1;strokeColor=none;fillColor=none;fontSize=6;" parent="1" vertex="1">
                    <mxGeometry x="350" y="450" width="60" height="20" as="geometry"/>
                </mxCell>
                <mxCell id="94" value="ISSUE_ID" style="text;html=1;align=center;verticalAlign=middle;resizable=0;points=[];autosize=1;strokeColor=none;fillColor=none;fontSize=6;" parent="1" vertex="1">
                    <mxGeometry x="460" y="439" width="50" height="20" as="geometry"/>
                </mxCell>
                <mxCell id="95" value="ISSUE_TITLE" style="text;html=1;align=left;verticalAlign=middle;resizable=0;points=[];autosize=1;strokeColor=none;fillColor=none;fontSize=6;" parent="1" vertex="1">
                    <mxGeometry x="530" y="439" width="60" height="20" as="geometry"/>
                </mxCell>
                <mxCell id="96" value="ISSUE_ID" style="text;html=1;align=center;verticalAlign=middle;resizable=0;points=[];autosize=1;strokeColor=none;fillColor=none;fontSize=6;" parent="1" vertex="1">
                    <mxGeometry x="650" y="439" width="50" height="20" as="geometry"/>
                </mxCell>
                <mxCell id="97" value="ASSIGNER_NAME" style="text;html=1;align=left;verticalAlign=middle;resizable=0;points=[];autosize=1;strokeColor=none;fillColor=none;fontSize=6;" parent="1" vertex="1">
                    <mxGeometry x="740" y="439" width="80" height="20" as="geometry"/>
                </mxCell>
                <mxCell id="98" value="ISSUE_PRIORITY" style="text;html=1;align=center;verticalAlign=middle;resizable=0;points=[];autosize=1;strokeColor=none;fillColor=none;fontSize=6;" parent="1" vertex="1">
                    <mxGeometry x="850" y="439" width="70" height="20" as="geometry"/>
                </mxCell>
                <mxCell id="99" value="ISSUE_STATUS" style="text;html=1;align=center;verticalAlign=middle;resizable=0;points=[];autosize=1;strokeColor=none;fillColor=none;fontSize=6;" parent="1" vertex="1">
                    <mxGeometry x="920" y="439" width="70" height="20" as="geometry"/>
                </mxCell>
                <mxCell id="100" value="CREATION_DATE" style="text;html=1;align=left;verticalAlign=middle;resizable=0;points=[];autosize=1;strokeColor=none;fillColor=none;fontSize=6;" parent="1" vertex="1">
                    <mxGeometry x="1000" y="439" width="70" height="20" as="geometry"/>
                </mxCell>
                <mxCell id="101" value="" style="ellipse;whiteSpace=wrap;html=1;fontSize=12;fillColor=#FFFFFF;fillStyle=hatch;" parent="1" vertex="1">
                    <mxGeometry x="320" y="489" width="20" height="20" as="geometry"/>
                </mxCell>
                <mxCell id="102" value="USER_NAME" style="text;html=1;align=left;verticalAlign=middle;resizable=0;points=[];autosize=1;strokeColor=none;fillColor=none;fontSize=6;" parent="1" vertex="1">
                    <mxGeometry x="350" y="480" width="60" height="20" as="geometry"/>
                </mxCell>
                <mxCell id="103" value="USER_EMAIL" style="text;html=1;align=left;verticalAlign=middle;resizable=0;points=[];autosize=1;strokeColor=none;fillColor=none;fontSize=6;" parent="1" vertex="1">
                    <mxGeometry x="350" y="500" width="60" height="20" as="geometry"/>
                </mxCell>
                <mxCell id="104" value="ISSUE_ID" style="text;html=1;align=center;verticalAlign=middle;resizable=0;points=[];autosize=1;strokeColor=none;fillColor=none;fontSize=6;" parent="1" vertex="1">
                    <mxGeometry x="460" y="489" width="50" height="20" as="geometry"/>
                </mxCell>
                <mxCell id="105" value="ISSUE_TITLE" style="text;html=1;align=left;verticalAlign=middle;resizable=0;points=[];autosize=1;strokeColor=none;fillColor=none;fontSize=6;" parent="1" vertex="1">
                    <mxGeometry x="530" y="489" width="60" height="20" as="geometry"/>
                </mxCell>
                <mxCell id="106" value="ISSUE_ID" style="text;html=1;align=center;verticalAlign=middle;resizable=0;points=[];autosize=1;strokeColor=none;fillColor=none;fontSize=6;" parent="1" vertex="1">
                    <mxGeometry x="650" y="489" width="50" height="20" as="geometry"/>
                </mxCell>
                <mxCell id="107" value="ASSIGNER_NAME" style="text;html=1;align=left;verticalAlign=middle;resizable=0;points=[];autosize=1;strokeColor=none;fillColor=none;fontSize=6;" parent="1" vertex="1">
                    <mxGeometry x="740" y="489" width="80" height="20" as="geometry"/>
                </mxCell>
                <mxCell id="108" value="ISSUE_PRIORITY" style="text;html=1;align=center;verticalAlign=middle;resizable=0;points=[];autosize=1;strokeColor=none;fillColor=none;fontSize=6;" parent="1" vertex="1">
                    <mxGeometry x="850" y="489" width="70" height="20" as="geometry"/>
                </mxCell>
                <mxCell id="109" value="ISSUE_STATUS" style="text;html=1;align=center;verticalAlign=middle;resizable=0;points=[];autosize=1;strokeColor=none;fillColor=none;fontSize=6;" parent="1" vertex="1">
                    <mxGeometry x="920" y="489" width="70" height="20" as="geometry"/>
                </mxCell>
                <mxCell id="110" value="CREATION_DATE" style="text;html=1;align=left;verticalAlign=middle;resizable=0;points=[];autosize=1;strokeColor=none;fillColor=none;fontSize=6;" parent="1" vertex="1">
                    <mxGeometry x="1000" y="489" width="70" height="20" as="geometry"/>
                </mxCell>
                <mxCell id="111" value="" style="ellipse;whiteSpace=wrap;html=1;fontSize=12;fillColor=#FFFFFF;fillStyle=hatch;" parent="1" vertex="1">
                    <mxGeometry x="320" y="539" width="20" height="20" as="geometry"/>
                </mxCell>
                <mxCell id="112" value="USER_NAME" style="text;html=1;align=left;verticalAlign=middle;resizable=0;points=[];autosize=1;strokeColor=none;fillColor=none;fontSize=6;" parent="1" vertex="1">
                    <mxGeometry x="350" y="530" width="60" height="20" as="geometry"/>
                </mxCell>
                <mxCell id="113" value="USER_EMAIL" style="text;html=1;align=left;verticalAlign=middle;resizable=0;points=[];autosize=1;strokeColor=none;fillColor=none;fontSize=6;" parent="1" vertex="1">
                    <mxGeometry x="350" y="550" width="60" height="20" as="geometry"/>
                </mxCell>
                <mxCell id="114" value="ISSUE_ID" style="text;html=1;align=center;verticalAlign=middle;resizable=0;points=[];autosize=1;strokeColor=none;fillColor=none;fontSize=6;" parent="1" vertex="1">
                    <mxGeometry x="460" y="539" width="50" height="20" as="geometry"/>
                </mxCell>
                <mxCell id="115" value="ISSUE_TITLE" style="text;html=1;align=left;verticalAlign=middle;resizable=0;points=[];autosize=1;strokeColor=none;fillColor=none;fontSize=6;" parent="1" vertex="1">
                    <mxGeometry x="530" y="539" width="60" height="20" as="geometry"/>
                </mxCell>
                <mxCell id="116" value="ISSUE_ID" style="text;html=1;align=center;verticalAlign=middle;resizable=0;points=[];autosize=1;strokeColor=none;fillColor=none;fontSize=6;" parent="1" vertex="1">
                    <mxGeometry x="650" y="539" width="50" height="20" as="geometry"/>
                </mxCell>
                <mxCell id="117" value="ASSIGNER_NAME" style="text;html=1;align=left;verticalAlign=middle;resizable=0;points=[];autosize=1;strokeColor=none;fillColor=none;fontSize=6;" parent="1" vertex="1">
                    <mxGeometry x="740" y="539" width="80" height="20" as="geometry"/>
                </mxCell>
                <mxCell id="118" value="ISSUE_PRIORITY" style="text;html=1;align=center;verticalAlign=middle;resizable=0;points=[];autosize=1;strokeColor=none;fillColor=none;fontSize=6;" parent="1" vertex="1">
                    <mxGeometry x="850" y="539" width="70" height="20" as="geometry"/>
                </mxCell>
                <mxCell id="119" value="ISSUE_STATUS" style="text;html=1;align=center;verticalAlign=middle;resizable=0;points=[];autosize=1;strokeColor=none;fillColor=none;fontSize=6;" parent="1" vertex="1">
                    <mxGeometry x="920" y="539" width="70" height="20" as="geometry"/>
                </mxCell>
                <mxCell id="120" value="CREATION_DATE" style="text;html=1;align=left;verticalAlign=middle;resizable=0;points=[];autosize=1;strokeColor=none;fillColor=none;fontSize=6;" parent="1" vertex="1">
                    <mxGeometry x="1000" y="539" width="70" height="20" as="geometry"/>
                </mxCell>
                <mxCell id="121" value="" style="ellipse;whiteSpace=wrap;html=1;fontSize=12;fillColor=#FFFFFF;fillStyle=hatch;" parent="1" vertex="1">
                    <mxGeometry x="320" y="589" width="20" height="20" as="geometry"/>
                </mxCell>
                <mxCell id="122" value="USER_NAME" style="text;html=1;align=left;verticalAlign=middle;resizable=0;points=[];autosize=1;strokeColor=none;fillColor=none;fontSize=6;" parent="1" vertex="1">
                    <mxGeometry x="350" y="580" width="60" height="20" as="geometry"/>
                </mxCell>
                <mxCell id="123" value="USER_EMAIL" style="text;html=1;align=left;verticalAlign=middle;resizable=0;points=[];autosize=1;strokeColor=none;fillColor=none;fontSize=6;" parent="1" vertex="1">
                    <mxGeometry x="350" y="600" width="60" height="20" as="geometry"/>
                </mxCell>
                <mxCell id="124" value="ISSUE_ID" style="text;html=1;align=center;verticalAlign=middle;resizable=0;points=[];autosize=1;strokeColor=none;fillColor=none;fontSize=6;" parent="1" vertex="1">
                    <mxGeometry x="460" y="589" width="50" height="20" as="geometry"/>
                </mxCell>
                <mxCell id="125" value="ISSUE_TITLE" style="text;html=1;align=left;verticalAlign=middle;resizable=0;points=[];autosize=1;strokeColor=none;fillColor=none;fontSize=6;" parent="1" vertex="1">
                    <mxGeometry x="530" y="589" width="60" height="20" as="geometry"/>
                </mxCell>
                <mxCell id="126" value="ISSUE_ID" style="text;html=1;align=center;verticalAlign=middle;resizable=0;points=[];autosize=1;strokeColor=none;fillColor=none;fontSize=6;" parent="1" vertex="1">
                    <mxGeometry x="650" y="589" width="50" height="20" as="geometry"/>
                </mxCell>
                <mxCell id="127" value="ASSIGNER_NAME" style="text;html=1;align=left;verticalAlign=middle;resizable=0;points=[];autosize=1;strokeColor=none;fillColor=none;fontSize=6;" parent="1" vertex="1">
                    <mxGeometry x="740" y="589" width="80" height="20" as="geometry"/>
                </mxCell>
                <mxCell id="128" value="ISSUE_PRIORITY" style="text;html=1;align=center;verticalAlign=middle;resizable=0;points=[];autosize=1;strokeColor=none;fillColor=none;fontSize=6;" parent="1" vertex="1">
                    <mxGeometry x="850" y="589" width="70" height="20" as="geometry"/>
                </mxCell>
                <mxCell id="129" value="ISSUE_STATUS" style="text;html=1;align=center;verticalAlign=middle;resizable=0;points=[];autosize=1;strokeColor=none;fillColor=none;fontSize=6;" parent="1" vertex="1">
                    <mxGeometry x="920" y="589" width="70" height="20" as="geometry"/>
                </mxCell>
                <mxCell id="130" value="CREATION_DATE" style="text;html=1;align=left;verticalAlign=middle;resizable=0;points=[];autosize=1;strokeColor=none;fillColor=none;fontSize=6;" parent="1" vertex="1">
                    <mxGeometry x="1000" y="589" width="70" height="20" as="geometry"/>
                </mxCell>
                <mxCell id="131" value="" style="ellipse;whiteSpace=wrap;html=1;fontSize=12;fillColor=#FFFFFF;fillStyle=hatch;" parent="1" vertex="1">
                    <mxGeometry x="320" y="639" width="20" height="20" as="geometry"/>
                </mxCell>
                <mxCell id="132" value="USER_NAME" style="text;html=1;align=left;verticalAlign=middle;resizable=0;points=[];autosize=1;strokeColor=none;fillColor=none;fontSize=6;" parent="1" vertex="1">
                    <mxGeometry x="350" y="630" width="60" height="20" as="geometry"/>
                </mxCell>
                <mxCell id="133" value="USER_EMAIL" style="text;html=1;align=left;verticalAlign=middle;resizable=0;points=[];autosize=1;strokeColor=none;fillColor=none;fontSize=6;" parent="1" vertex="1">
                    <mxGeometry x="350" y="650" width="60" height="20" as="geometry"/>
                </mxCell>
                <mxCell id="134" value="ISSUE_ID" style="text;html=1;align=center;verticalAlign=middle;resizable=0;points=[];autosize=1;strokeColor=none;fillColor=none;fontSize=6;" parent="1" vertex="1">
                    <mxGeometry x="460" y="639" width="50" height="20" as="geometry"/>
                </mxCell>
                <mxCell id="135" value="ISSUE_TITLE" style="text;html=1;align=left;verticalAlign=middle;resizable=0;points=[];autosize=1;strokeColor=none;fillColor=none;fontSize=6;" parent="1" vertex="1">
                    <mxGeometry x="530" y="639" width="60" height="20" as="geometry"/>
                </mxCell>
                <mxCell id="136" value="ISSUE_ID" style="text;html=1;align=center;verticalAlign=middle;resizable=0;points=[];autosize=1;strokeColor=none;fillColor=none;fontSize=6;" parent="1" vertex="1">
                    <mxGeometry x="650" y="639" width="50" height="20" as="geometry"/>
                </mxCell>
                <mxCell id="137" value="ASSIGNER_NAME" style="text;html=1;align=left;verticalAlign=middle;resizable=0;points=[];autosize=1;strokeColor=none;fillColor=none;fontSize=6;" parent="1" vertex="1">
                    <mxGeometry x="740" y="639" width="80" height="20" as="geometry"/>
                </mxCell>
                <mxCell id="138" value="ISSUE_PRIORITY" style="text;html=1;align=center;verticalAlign=middle;resizable=0;points=[];autosize=1;strokeColor=none;fillColor=none;fontSize=6;" parent="1" vertex="1">
                    <mxGeometry x="850" y="639" width="70" height="20" as="geometry"/>
                </mxCell>
                <mxCell id="139" value="ISSUE_STATUS" style="text;html=1;align=center;verticalAlign=middle;resizable=0;points=[];autosize=1;strokeColor=none;fillColor=none;fontSize=6;" parent="1" vertex="1">
                    <mxGeometry x="920" y="639" width="70" height="20" as="geometry"/>
                </mxCell>
                <mxCell id="140" value="CREATION_DATE" style="text;html=1;align=left;verticalAlign=middle;resizable=0;points=[];autosize=1;strokeColor=none;fillColor=none;fontSize=6;" parent="1" vertex="1">
                    <mxGeometry x="1000" y="639" width="70" height="20" as="geometry"/>
                </mxCell>
            </root>
        </mxGraphModel>
    </diagram>
</mxfile>